<mxfile host="app.diagrams.net" modified="2023-11-13T12:24:41.344Z" agent="Mozilla/5.0 (Windows NT 10.0; Win64; x64) AppleWebKit/537.36 (KHTML, like Gecko) Chrome/119.0.0.0 Safari/537.36" etag="_B62_41D09c3UhzJOhTK" version="22.1.0" type="github">
  <diagram name="Page-1" id="eXrnB0V7y9AE8dz9dOgP">
    <mxGraphModel dx="2284" dy="790" grid="1" gridSize="10" guides="1" tooltips="1" connect="1" arrows="1" fold="1" page="1" pageScale="1" pageWidth="850" pageHeight="1100" math="0" shadow="0">
      <root>
        <mxCell id="0" />
        <mxCell id="1" parent="0" />
        <mxCell id="kOEDKPycE9B6e-fwpecc-61" style="edgeStyle=orthogonalEdgeStyle;rounded=0;orthogonalLoop=1;jettySize=auto;html=1;entryX=0;entryY=0.5;entryDx=0;entryDy=0;" parent="1" source="kOEDKPycE9B6e-fwpecc-3" edge="1">
          <mxGeometry relative="1" as="geometry">
            <mxPoint x="130" y="290" as="targetPoint" />
            <Array as="points">
              <mxPoint x="10" y="290" />
            </Array>
          </mxGeometry>
        </mxCell>
        <mxCell id="kOEDKPycE9B6e-fwpecc-3" value="Style" style="rounded=0;whiteSpace=wrap;html=1;" parent="1" vertex="1">
          <mxGeometry x="-50" y="370" width="120" height="60" as="geometry" />
        </mxCell>
        <mxCell id="kOEDKPycE9B6e-fwpecc-52" style="edgeStyle=orthogonalEdgeStyle;rounded=0;orthogonalLoop=1;jettySize=auto;html=1;entryX=0.5;entryY=1;entryDx=0;entryDy=0;exitX=0.5;exitY=0;exitDx=0;exitDy=0;" parent="1" source="kOEDKPycE9B6e-fwpecc-7" target="kOEDKPycE9B6e-fwpecc-19" edge="1">
          <mxGeometry relative="1" as="geometry" />
        </mxCell>
        <mxCell id="kOEDKPycE9B6e-fwpecc-53" style="edgeStyle=orthogonalEdgeStyle;rounded=0;orthogonalLoop=1;jettySize=auto;html=1;entryX=0.5;entryY=1;entryDx=0;entryDy=0;" parent="1" source="kOEDKPycE9B6e-fwpecc-7" target="kOEDKPycE9B6e-fwpecc-48" edge="1">
          <mxGeometry relative="1" as="geometry" />
        </mxCell>
        <mxCell id="kOEDKPycE9B6e-fwpecc-55" style="edgeStyle=orthogonalEdgeStyle;rounded=0;orthogonalLoop=1;jettySize=auto;html=1;entryX=0.5;entryY=1;entryDx=0;entryDy=0;" parent="1" source="kOEDKPycE9B6e-fwpecc-7" target="kOEDKPycE9B6e-fwpecc-18" edge="1">
          <mxGeometry relative="1" as="geometry" />
        </mxCell>
        <mxCell id="kOEDKPycE9B6e-fwpecc-7" value="Components" style="rounded=0;whiteSpace=wrap;html=1;" parent="1" vertex="1">
          <mxGeometry x="-70" y="650" width="120" height="60" as="geometry" />
        </mxCell>
        <mxCell id="kOEDKPycE9B6e-fwpecc-56" style="edgeStyle=orthogonalEdgeStyle;rounded=0;orthogonalLoop=1;jettySize=auto;html=1;entryX=1;entryY=0.5;entryDx=0;entryDy=0;" parent="1" source="kOEDKPycE9B6e-fwpecc-8" target="kOEDKPycE9B6e-fwpecc-3" edge="1">
          <mxGeometry relative="1" as="geometry" />
        </mxCell>
        <mxCell id="kOEDKPycE9B6e-fwpecc-8" value="Pages.scss" style="rounded=0;whiteSpace=wrap;html=1;" parent="1" vertex="1">
          <mxGeometry x="30" y="450" width="120" height="60" as="geometry" />
        </mxCell>
        <mxCell id="kOEDKPycE9B6e-fwpecc-27" style="edgeStyle=orthogonalEdgeStyle;rounded=0;orthogonalLoop=1;jettySize=auto;html=1;entryX=0;entryY=0.5;entryDx=0;entryDy=0;" parent="1" source="kOEDKPycE9B6e-fwpecc-9" target="kOEDKPycE9B6e-fwpecc-3" edge="1">
          <mxGeometry relative="1" as="geometry" />
        </mxCell>
        <mxCell id="kOEDKPycE9B6e-fwpecc-9" value="Defaults" style="rounded=0;whiteSpace=wrap;html=1;" parent="1" vertex="1">
          <mxGeometry x="-130" y="450" width="120" height="60" as="geometry" />
        </mxCell>
        <mxCell id="kOEDKPycE9B6e-fwpecc-86" style="edgeStyle=orthogonalEdgeStyle;rounded=0;orthogonalLoop=1;jettySize=auto;html=1;" parent="1" source="kOEDKPycE9B6e-fwpecc-11" edge="1">
          <mxGeometry relative="1" as="geometry">
            <mxPoint x="440" y="120" as="targetPoint" />
          </mxGeometry>
        </mxCell>
        <mxCell id="kOEDKPycE9B6e-fwpecc-11" value="Index / Home Page" style="rounded=0;whiteSpace=wrap;html=1;" parent="1" vertex="1">
          <mxGeometry x="380" y="20" width="120" height="60" as="geometry" />
        </mxCell>
        <mxCell id="kOEDKPycE9B6e-fwpecc-62" style="edgeStyle=orthogonalEdgeStyle;rounded=0;orthogonalLoop=1;jettySize=auto;html=1;entryX=0.5;entryY=0;entryDx=0;entryDy=0;" parent="1" target="kOEDKPycE9B6e-fwpecc-3" edge="1">
          <mxGeometry relative="1" as="geometry">
            <mxPoint x="130" y="290" as="sourcePoint" />
          </mxGeometry>
        </mxCell>
        <mxCell id="kOEDKPycE9B6e-fwpecc-73" style="edgeStyle=orthogonalEdgeStyle;rounded=0;orthogonalLoop=1;jettySize=auto;html=1;entryX=0;entryY=0.5;entryDx=0;entryDy=0;" parent="1" source="kOEDKPycE9B6e-fwpecc-13" target="kOEDKPycE9B6e-fwpecc-74" edge="1">
          <mxGeometry relative="1" as="geometry">
            <mxPoint x="520" y="150" as="targetPoint" />
          </mxGeometry>
        </mxCell>
        <mxCell id="kOEDKPycE9B6e-fwpecc-13" value="Main.CSS" style="rounded=0;whiteSpace=wrap;html=1;" parent="1" vertex="1">
          <mxGeometry x="130" y="260" width="120" height="60" as="geometry" />
        </mxCell>
        <mxCell id="kOEDKPycE9B6e-fwpecc-16" style="edgeStyle=orthogonalEdgeStyle;rounded=0;orthogonalLoop=1;jettySize=auto;html=1;exitX=0.5;exitY=1;exitDx=0;exitDy=0;" parent="1" source="kOEDKPycE9B6e-fwpecc-11" target="kOEDKPycE9B6e-fwpecc-11" edge="1">
          <mxGeometry relative="1" as="geometry" />
        </mxCell>
        <mxCell id="kOEDKPycE9B6e-fwpecc-18" value="Footer" style="rounded=0;whiteSpace=wrap;html=1;" parent="1" vertex="1">
          <mxGeometry x="-200" y="550" width="120" height="60" as="geometry" />
        </mxCell>
        <mxCell id="kOEDKPycE9B6e-fwpecc-19" value="Header" style="rounded=0;whiteSpace=wrap;html=1;" parent="1" vertex="1">
          <mxGeometry x="-70" y="550" width="120" height="60" as="geometry" />
        </mxCell>
        <mxCell id="kOEDKPycE9B6e-fwpecc-23" style="edgeStyle=orthogonalEdgeStyle;rounded=0;orthogonalLoop=1;jettySize=auto;html=1;entryX=0.308;entryY=1.017;entryDx=0;entryDy=0;entryPerimeter=0;" parent="1" source="kOEDKPycE9B6e-fwpecc-18" target="kOEDKPycE9B6e-fwpecc-9" edge="1">
          <mxGeometry relative="1" as="geometry" />
        </mxCell>
        <mxCell id="kOEDKPycE9B6e-fwpecc-31" value="About.html" style="rounded=0;whiteSpace=wrap;html=1;" parent="1" vertex="1">
          <mxGeometry x="250" y="370" width="120" height="60" as="geometry" />
        </mxCell>
        <mxCell id="kOEDKPycE9B6e-fwpecc-83" style="edgeStyle=orthogonalEdgeStyle;rounded=0;orthogonalLoop=1;jettySize=auto;html=1;entryX=0.5;entryY=1;entryDx=0;entryDy=0;" parent="1" source="kOEDKPycE9B6e-fwpecc-48" target="kOEDKPycE9B6e-fwpecc-8" edge="1">
          <mxGeometry relative="1" as="geometry" />
        </mxCell>
        <mxCell id="kOEDKPycE9B6e-fwpecc-48" value="SCSS Styling" style="rounded=0;whiteSpace=wrap;html=1;" parent="1" vertex="1">
          <mxGeometry x="60" y="550" width="120" height="60" as="geometry" />
        </mxCell>
        <mxCell id="kOEDKPycE9B6e-fwpecc-49" style="edgeStyle=orthogonalEdgeStyle;rounded=0;orthogonalLoop=1;jettySize=auto;html=1;entryX=0.625;entryY=1;entryDx=0;entryDy=0;entryPerimeter=0;" parent="1" source="kOEDKPycE9B6e-fwpecc-19" target="kOEDKPycE9B6e-fwpecc-9" edge="1">
          <mxGeometry relative="1" as="geometry" />
        </mxCell>
        <mxCell id="kOEDKPycE9B6e-fwpecc-58" style="edgeStyle=orthogonalEdgeStyle;rounded=0;orthogonalLoop=1;jettySize=auto;html=1;" parent="1" source="kOEDKPycE9B6e-fwpecc-57" target="kOEDKPycE9B6e-fwpecc-7" edge="1">
          <mxGeometry relative="1" as="geometry" />
        </mxCell>
        <mxCell id="kOEDKPycE9B6e-fwpecc-57" value="Contains Animations, Colors, Fonts and Mixins&amp;nbsp;" style="rounded=0;whiteSpace=wrap;html=1;" parent="1" vertex="1">
          <mxGeometry x="-210" y="740" width="400" height="60" as="geometry" />
        </mxCell>
        <mxCell id="kOEDKPycE9B6e-fwpecc-71" style="edgeStyle=orthogonalEdgeStyle;rounded=0;orthogonalLoop=1;jettySize=auto;html=1;entryX=0.5;entryY=0;entryDx=0;entryDy=0;" parent="1" source="kOEDKPycE9B6e-fwpecc-64" target="kOEDKPycE9B6e-fwpecc-70" edge="1">
          <mxGeometry relative="1" as="geometry">
            <Array as="points">
              <mxPoint x="440" y="330" />
              <mxPoint x="570" y="330" />
            </Array>
          </mxGeometry>
        </mxCell>
        <mxCell id="kOEDKPycE9B6e-fwpecc-72" style="edgeStyle=orthogonalEdgeStyle;rounded=0;orthogonalLoop=1;jettySize=auto;html=1;" parent="1" source="kOEDKPycE9B6e-fwpecc-64" edge="1">
          <mxGeometry relative="1" as="geometry">
            <Array as="points">
              <mxPoint x="440" y="310" />
              <mxPoint x="440" y="310" />
            </Array>
            <mxPoint x="440" y="370" as="targetPoint" />
          </mxGeometry>
        </mxCell>
        <mxCell id="kOEDKPycE9B6e-fwpecc-78" style="edgeStyle=orthogonalEdgeStyle;rounded=0;orthogonalLoop=1;jettySize=auto;html=1;entryX=0.5;entryY=1;entryDx=0;entryDy=0;" parent="1" source="kOEDKPycE9B6e-fwpecc-64" target="kOEDKPycE9B6e-fwpecc-74" edge="1">
          <mxGeometry relative="1" as="geometry" />
        </mxCell>
        <mxCell id="kOEDKPycE9B6e-fwpecc-79" style="edgeStyle=orthogonalEdgeStyle;rounded=0;orthogonalLoop=1;jettySize=auto;html=1;entryX=0.5;entryY=0;entryDx=0;entryDy=0;" parent="1" source="kOEDKPycE9B6e-fwpecc-64" target="kOEDKPycE9B6e-fwpecc-31" edge="1">
          <mxGeometry relative="1" as="geometry">
            <Array as="points">
              <mxPoint x="440" y="330" />
              <mxPoint x="310" y="330" />
            </Array>
            <mxPoint x="310" y="360" as="targetPoint" />
          </mxGeometry>
        </mxCell>
        <mxCell id="kOEDKPycE9B6e-fwpecc-64" value="Pages" style="rounded=0;whiteSpace=wrap;html=1;" parent="1" vertex="1">
          <mxGeometry x="380" y="250" width="120" height="60" as="geometry" />
        </mxCell>
        <mxCell id="kOEDKPycE9B6e-fwpecc-69" value="Experience.html" style="rounded=0;whiteSpace=wrap;html=1;" parent="1" vertex="1">
          <mxGeometry x="380" y="370" width="120" height="60" as="geometry" />
        </mxCell>
        <mxCell id="kOEDKPycE9B6e-fwpecc-84" style="edgeStyle=orthogonalEdgeStyle;rounded=0;orthogonalLoop=1;jettySize=auto;html=1;entryX=0.5;entryY=1;entryDx=0;entryDy=0;" parent="1" target="kOEDKPycE9B6e-fwpecc-64" edge="1">
          <mxGeometry relative="1" as="geometry">
            <Array as="points">
              <mxPoint x="570" y="330" />
              <mxPoint x="440" y="330" />
            </Array>
            <mxPoint x="570" y="390" as="sourcePoint" />
          </mxGeometry>
        </mxCell>
        <mxCell id="kOEDKPycE9B6e-fwpecc-70" value="Blog.html" style="rounded=0;whiteSpace=wrap;html=1;" parent="1" vertex="1">
          <mxGeometry x="510" y="370" width="120" height="60" as="geometry" />
        </mxCell>
        <mxCell id="kOEDKPycE9B6e-fwpecc-81" style="edgeStyle=orthogonalEdgeStyle;rounded=0;orthogonalLoop=1;jettySize=auto;html=1;entryX=0.5;entryY=1;entryDx=0;entryDy=0;" parent="1" source="kOEDKPycE9B6e-fwpecc-74" target="kOEDKPycE9B6e-fwpecc-11" edge="1">
          <mxGeometry relative="1" as="geometry" />
        </mxCell>
        <mxCell id="kOEDKPycE9B6e-fwpecc-87" style="edgeStyle=orthogonalEdgeStyle;rounded=0;orthogonalLoop=1;jettySize=auto;html=1;entryX=0.5;entryY=0;entryDx=0;entryDy=0;" parent="1" source="kOEDKPycE9B6e-fwpecc-74" target="kOEDKPycE9B6e-fwpecc-64" edge="1">
          <mxGeometry relative="1" as="geometry" />
        </mxCell>
        <mxCell id="9LpQ6Fo7K-bDsRQOZVZH-1" style="edgeStyle=orthogonalEdgeStyle;rounded=0;orthogonalLoop=1;jettySize=auto;html=1;" edge="1" parent="1" source="kOEDKPycE9B6e-fwpecc-74" target="9LpQ6Fo7K-bDsRQOZVZH-2">
          <mxGeometry relative="1" as="geometry">
            <mxPoint x="740" y="370" as="targetPoint" />
          </mxGeometry>
        </mxCell>
        <mxCell id="kOEDKPycE9B6e-fwpecc-74" value="Source Code (src)" style="rounded=0;whiteSpace=wrap;html=1;" parent="1" vertex="1">
          <mxGeometry x="380" y="120" width="120" height="60" as="geometry" />
        </mxCell>
        <mxCell id="9LpQ6Fo7K-bDsRQOZVZH-2" value="Images" style="rounded=0;whiteSpace=wrap;html=1;" vertex="1" parent="1">
          <mxGeometry x="680" y="370" width="120" height="60" as="geometry" />
        </mxCell>
        <mxCell id="9LpQ6Fo7K-bDsRQOZVZH-3" style="edgeStyle=orthogonalEdgeStyle;rounded=0;orthogonalLoop=1;jettySize=auto;html=1;" edge="1" parent="1" source="9LpQ6Fo7K-bDsRQOZVZH-2">
          <mxGeometry relative="1" as="geometry">
            <mxPoint x="500" y="150" as="targetPoint" />
            <Array as="points">
              <mxPoint x="740" y="150" />
              <mxPoint x="580" y="150" />
            </Array>
          </mxGeometry>
        </mxCell>
      </root>
    </mxGraphModel>
  </diagram>
</mxfile>
